# Blender v2.78 (sub 0) OBJ File: 'level01SPLIT.blend'
# www.blender.org
mtllib level01.mtl
g Plane.004
v 12.500000 18.750000 -37.500000
v 87.500000 18.750000 -37.500000
v 87.500000 18.750000 -37.500000
v 112.500000 18.750000 -37.500000
v 12.500000 18.750000 -87.500000
v 87.500000 18.750000 -87.500000
v 112.500000 18.750000 -87.500000
v 12.500000 18.750000 -87.500000
v -37.499996 18.750000 -37.500000
v -37.499996 18.750000 -87.500000
v 12.500000 43.750000 -37.500000
v 87.500000 43.750000 -37.500000
v 87.500000 43.750000 -37.500000
v 112.500000 43.750000 -37.500000
v 12.500000 43.750000 -87.500000
v 87.500000 43.750000 -87.500000
v 112.500000 43.750000 -87.500000
v 12.500000 43.750000 -87.500000
v -37.499996 43.750000 -37.500000
v -37.499996 43.750000 -87.500000
v -37.500000 18.672247 -37.500000
v -12.499998 43.672249 -37.500000
v -37.500000 43.672249 -37.500000
v -12.499998 18.672247 -37.500000
v 12.500000 37.500000 -37.500000
v -12.499998 37.500000 -37.500000
v 112.500000 18.750000 -112.500000
v 87.500000 18.750000 -112.500000
v 87.500000 43.750000 -87.500000
v 112.500000 43.750000 -87.500000
v 112.500000 43.750000 -112.500000
v 87.500000 43.750000 -112.500000
vt 0.0000 0.9689
vt -1.0000 0.9689
vt -1.0000 -9.0311
vt 0.0000 0.0000
vt 3.0000 10.0000
vt 3.0000 0.0000
vt 0.0000 -9.0311
vt 0.0000 0.0000
vt -2.0000 10.0000
vt -2.0000 0.0000
vt 0.0000 0.0000
vt 2.0000 10.0000
vt 2.0000 0.0000
vt 0.0000 0.0000
vt 2.0000 10.0000
vt 2.0000 0.0000
vt 1.0000 0.5000
vt 0.0000 3.0000
vt 1.0000 2.9689
vt 0.0000 0.0000
vt -1.0000 -10.0000
vt 0.0000 -10.0000
vt 0.0000 0.0000
vt 1.0000 10.0000
vt 1.0000 0.0000
vt 0.0000 0.0000
vt 1.0000 10.0000
vt 1.0000 0.0000
vt 0.0000 0.0000
vt -1.0000 10.0000
vt -1.0000 0.0000
vt 0.0000 0.5000
vt 0.0000 10.0000
vt 0.0000 10.0000
vt 0.0000 10.0000
vt 0.0000 10.0000
vt 0.0000 0.0000
vt -3.0000 0.0000
vt -3.0000 -10.0000
vt -1.0000 0.0000
vt 0.0000 10.0000
vt 0.0000 10.0000
vt 0.0000 10.0000
vt 0.0000 -10.0000
vn 0.0000 0.0000 -1.0000
vn 0.0000 0.0000 1.0000
vn -1.0000 0.0000 0.0000
vn 1.0000 0.0000 0.0000
usemtl Wall1
s off
f 23/1/1 22/2/1 24/3/1
f 6/4/2 15/5/2 5/6/2
f 23/1/1 24/3/1 21/7/1
f 4/8/3 17/9/3 7/10/3
f 10/11/4 19/12/4 9/13/4
f 8/14/2 20/15/2 10/16/2
f 26/17/2 11/18/2 22/19/2
f 13/20/1 4/21/1 3/22/1
f 28/23/4 29/24/4 6/25/4
f 27/26/2 32/27/2 28/28/2
f 7/29/3 31/30/3 27/31/3
f 26/17/2 25/32/2 11/18/2
f 6/4/2 16/33/2 15/5/2
f 4/8/3 14/34/3 17/9/3
f 10/11/4 20/35/4 19/12/4
f 8/14/2 18/36/2 20/15/2
f 11/37/1 12/38/1 2/39/1
f 13/20/1 14/40/1 4/21/1
f 28/23/4 32/41/4 29/24/4
f 27/26/2 31/42/2 32/27/2
f 7/29/3 30/43/3 31/30/3
f 11/37/1 2/39/1 1/44/1
g Plane.003
v -12.500000 0.000000 12.512501
v -12.571767 0.000000 37.765938
v 12.500000 18.750000 -12.500000
v 12.500000 18.750000 12.500000
v 12.500000 18.750000 -12.500000
v 12.500000 18.750000 12.512501
v 12.500000 18.750000 -37.500000
v 87.500000 18.750000 -12.500000
v 87.500000 18.750000 12.512501
v 87.500000 18.750000 -37.500000
v 87.500000 18.750000 37.500000
v 87.500000 18.750000 -12.500000
v 87.500000 18.750000 12.512501
v 87.500000 18.750000 -37.500000
v 87.500000 18.750000 37.500000
v 112.500000 18.750000 -12.500000
v 112.500000 18.750000 12.512501
v 112.500000 18.750000 -37.500000
v 112.500000 18.750000 37.500000
v 12.500000 18.750000 -87.500000
v 87.500000 18.750000 -87.500000
v 87.500000 18.750000 -87.500000
v 112.500000 18.750000 -87.500000
v -37.499996 18.750000 -87.500000
v -12.499998 18.750000 -12.500000
v -12.499998 18.750000 12.500000
v -12.499998 18.750000 -12.500000
v -12.499999 18.750000 -87.500000
v -12.499998 18.750000 -37.500000
v -37.500000 18.750000 -37.500000
vt 0.0000 0.0000
vt -3.0000 -1.0000
vt 0.0000 -1.0000
vt 0.0000 0.0005
vt -3.0000 -1.0000
vt 0.0000 -1.0000
vt 0.0000 0.0000
vt -1.0000 -0.9995
vt 0.0000 -0.9995
vt 0.0000 0.0000
vt -1.0000 -1.0000
vt 0.0000 -1.0000
vt 0.0000 0.0005
vt -1.0000 -1.0000
vt 0.0000 -1.0000
vt -3.0000 0.0000
vt -3.0000 0.0005
vt -1.0000 0.0000
vt -1.0000 0.0000
vt -1.0000 0.0005
vt 0.0005 0.0000
vt 1.0106 -7.5000
vt 1.0000 0.0000
vt 0.0005 -7.5000
vt 0.0000 0.0000
vt 1.0000 -2.0000
vt 1.0000 0.0000
vt 0.0000 0.0000
vt 3.0000 -2.0000
vt 3.0000 0.0000
vt 0.0000 1.0000
vt 1.0000 1.0000
vt 0.0000 0.0000
vt 0.0000 1.0000
vt 1.0000 1.0000
vt 1.0000 0.0000
vt 2.0000 -2.0000
vt 2.0000 0.0000
vt 0.0000 0.0000
vt -1.0000 2.0000
vt -1.0000 0.0000
vt 0.0000 -2.0000
vt 0.0000 -2.0000
vt 1.0000 0.0000
vt 1.0000 -2.0000
vt -0.0000 2.0000
vn 0.0000 1.0000 0.0000
vn -0.1842 0.9829 0.0000
vn -0.1843 0.9829 -0.0005
vn 0.0000 -1.0000 0.0000
usemtl MetalFloor1
s off
f 37/45/5 42/46/5 39/47/5
f 38/48/5 40/49/5 37/50/5
f 47/51/5 49/52/5 45/53/5
f 44/54/5 50/55/5 46/56/5
f 45/57/5 48/58/5 44/59/5
f 37/45/5 40/60/5 42/46/5
f 38/48/5 41/61/5 40/49/5
f 47/51/5 51/62/5 49/52/5
f 44/54/5 48/63/5 50/55/5
f 45/57/5 49/64/5 48/58/5
f 45/65/6 34/66/6 43/67/6
f 45/65/7 33/68/7 34/66/7
f 50/69/5 54/70/5 46/71/5
f 42/72/5 52/73/5 39/74/5
f 37/45/8 36/75/8 58/76/8
f 39/77/8 35/78/8 57/79/8
f 61/80/5 56/81/5 62/82/5
f 60/83/5 39/84/5 52/85/5
f 50/69/5 55/86/5 54/70/5
f 42/72/5 53/87/5 52/73/5
f 37/45/8 58/76/8 59/88/8
f 39/77/8 57/79/8 61/80/8
f 61/80/5 60/89/5 56/81/5
f 60/83/5 61/90/5 39/84/5
g Plane.002
v 12.500000 0.000000 -12.500000
v 12.500000 0.000000 12.500000
v -12.500000 0.000000 12.512501
v 12.500000 0.000000 -37.500000
v -12.500000 0.000000 -37.500000
v -37.500000 0.000000 -12.500000
v -37.500000 0.000000 12.500000
v -37.500000 0.000000 -37.500000
v -12.571767 0.000000 37.765938
v -37.571766 0.000000 37.765938
v 12.500000 18.750000 -12.500000
v 12.500000 18.750000 12.500000
v -12.500000 18.750000 12.512501
v -37.500000 18.750000 -12.500000
v -37.500000 18.750000 12.500000
v -37.500000 18.750000 -37.500000
v -12.571767 18.750000 37.765938
v -37.500000 18.750000 37.500000
v 12.500000 18.750000 12.512501
v 12.500000 18.750000 -37.500000
v 87.500000 18.750000 12.512501
v 87.500000 18.750000 37.500000
v -37.500000 18.750000 -12.500000
v 12.500000 25.000000 12.512501
v 87.500000 25.000000 12.512501
v -37.500000 18.750000 12.500000
v -37.500000 18.750000 -37.500000
v -12.571767 18.750000 37.765938
v 112.500000 18.750000 -12.500000
v 112.500000 18.750000 12.512501
v 112.500000 18.750000 -37.500000
v 112.500000 18.750000 37.500000
v -37.500000 43.750000 -12.500000
v -37.500000 43.750000 12.500000
v -37.500000 43.750000 -37.500000
v -12.500000 43.750000 37.500000
v -37.500000 43.750000 37.500000
v 87.501892 43.750000 37.500000
v 112.500000 43.750000 -12.500000
v 112.500000 43.750000 12.512501
v 112.500000 43.750000 -37.500000
v 112.500000 43.750000 37.500000
v -12.499998 18.750000 12.500000
v -12.499998 18.750000 -12.500000
v 12.500000 18.750000 -37.500000
v 12.500000 18.750000 -37.500000
v -12.499998 18.750000 -37.500000
v -12.499998 18.750000 -37.500000
v -37.500000 18.750000 -37.500000
v 12.500000 0.000000 -37.500000
v 12.500000 25.000000 12.500000
v -12.499998 25.000000 12.500000
v -12.499998 25.000000 12.500000
v -12.499998 25.000000 -12.500000
v -12.499998 18.750000 -12.500000
v -12.499998 18.750000 -37.500000
v -12.499998 25.000000 -12.500000
v -12.499998 25.000000 -37.500000
vt 0.0000 0.5000
vt -1.0000 8.0000
vt -1.0000 0.5000
vt 0.0000 0.5000
vt 1.0000 8.0000
vt 1.0000 0.5000
vt 0.0000 0.5000
vt 1.0000 8.0000
vt 1.0106 0.5000
vt 0.0000 0.5000
vt 1.0000 8.0000
vt 1.0000 0.5000
vt 0.0029 0.5000
vt -0.9971 8.0000
vt -0.9971 0.5000
vt 0.0000 0.5000
vt -1.0000 8.0000
vt -1.0000 0.5000
vt 0.0000 0.5000
vt -1.0000 8.0000
vt -1.0000 0.5000
vt 0.0029 0.5000
vt 0.0029 8.0000
vt -4.0000 8.0000
vt 0.0000 8.0000
vt 0.0000 8.0000
vt 0.0000 8.0000
vt 0.0000 8.0000
vt 0.0000 8.0000
vt 0.0000 8.0000
vt -1.0000 8.0000
vt 0.0000 8.0000
vt 0.0000 0.0000
vt 0.0000 -7.5000
vt -4.0000 0.0000
vt 0.0000 0.0000
vt 3.0000 2.5000
vt 3.0000 0.0000
vt 0.0000 0.0000
vt 1.0000 10.0000
vt 1.0000 0.0000
vt 0.0000 0.0000
vt 1.0000 10.0000
vt 1.0000 0.0000
vt 0.0000 0.0000
vt 1.0000 10.0000
vt 1.0000 0.0000
vt 0.0029 0.0000
vt -4.0001 10.0000
vt -4.0000 0.0000
vt 0.0005 0.0000
vt -1.0000 10.0000
vt -1.0000 0.0000
vt 0.0000 0.0000
vt -1.0000 10.0000
vt -1.0000 0.0000
vt 0.0000 0.0000
vt -0.9995 10.0000
vt -0.9995 0.0000
vt 0.0000 0.0000
vt -1.0000 10.0000
vt -1.0000 0.0000
vt 0.0000 0.0000
vt -1.0000 10.0000
vt -0.9971 0.0000
vt 1.0000 0.0000
vt 0.0000 -7.5000
vt 0.0000 0.0000
vt 1.0000 -7.5000
vt 1.0000 0.0000
vt 0.0000 0.0000
vt 0.0000 2.5000
vt 0.0000 0.0000
vt 1.0000 2.5000
vt 0.0000 0.0000
vt 1.0000 2.5000
vt 1.0000 0.0000
vt 0.0000 2.5000
vt 0.0000 10.0000
vt 0.0000 10.0000
vt 0.0000 10.0000
vt 0.0000 10.0000
vt 0.0005 10.0000
vt 0.0000 10.0000
vt 0.0000 10.0000
vt -0.0001 10.0000
vt 0.0000 10.0000
vt 1.0000 2.5000
vt 0.0000 2.5000
vt 0.0000 2.5000
vt -1.0000 8.0000
vt 0.0000 8.0000
vt -1.0000 0.5000
vn -1.0000 0.0000 0.0000
vn 1.0000 0.0000 0.0000
vn 1.0000 -0.0038 0.0028
vn 0.0000 0.0000 -1.0000
vn -0.0005 0.0000 -1.0000
vn -0.0027 0.0000 -1.0000
vn 0.0107 -0.0142 -0.9998
vn 0.0000 0.0000 1.0000
vn 0.0107 -0.0107 -0.9999
vn 0.0000 -0.0106 -0.9999
usemtl Wall2
s off
f 64/91/9 73/92/9 63/93/9
f 68/94/10 77/95/10 69/96/10
f 69/97/11 80/98/11 72/99/11
f 70/100/10 76/101/10 68/102/10
f 72/103/12 79/104/12 71/105/12
f 63/106/9 108/107/9 66/108/9
f 65/109/13 74/110/13 64/111/13
f 71/112/14 79/113/14 84/114/14
f 64/91/9 74/115/9 73/92/9
f 68/94/10 76/116/10 77/95/10
f 69/97/10 77/117/10 80/98/10
f 70/100/10 78/118/10 76/101/10
f 72/103/15 80/119/15 79/104/15
f 63/106/9 73/120/9 107/121/9
f 65/109/13 75/122/13 74/110/13
f 75/123/16 65/124/16 83/125/16
f 83/126/16 86/127/16 81/128/16
f 88/129/10 99/130/10 80/131/10
f 89/132/10 95/133/10 85/134/10
f 85/135/10 96/136/10 88/137/10
f 90/138/14 100/139/14 84/140/14
f 92/141/9 101/142/9 91/143/9
f 91/144/9 103/145/9 93/146/9
f 94/147/9 102/148/9 92/149/9
f 84/150/12 104/151/12 94/152/12
f 80/153/17 98/154/17 90/155/17
f 109/156/16 112/157/16 82/158/16
f 109/156/16 67/159/16 112/157/16
f 105/160/16 74/161/16 113/162/16
f 106/163/10 115/164/10 105/160/10
f 118/165/10 119/166/10 117/167/10
f 83/126/16 87/168/16 86/127/16
f 88/129/10 96/169/10 99/130/10
f 89/132/10 97/170/10 95/133/10
f 85/135/10 95/171/10 96/136/10
f 90/138/18 98/172/18 100/139/18
f 92/141/9 102/173/9 101/142/9
f 91/144/9 101/174/9 103/145/9
f 94/147/9 104/175/9 102/148/9
f 84/150/12 100/176/12 104/151/12
f 80/153/12 99/177/12 98/154/12
f 105/160/16 113/162/16 114/178/16
f 106/163/10 116/179/10 115/164/10
f 118/165/10 120/180/10 119/166/10
f 70/100/16 110/181/16 111/182/16
f 70/100/16 67/183/16 110/181/16
g Plane.001
v 12.500000 0.000000 -12.500000
v -12.500000 0.000000 -12.500000
v 12.500000 0.000000 12.500000
v -12.500000 0.000000 12.512501
v 12.500000 0.000000 -37.500000
v -12.500000 0.000000 -37.500000
v -37.500000 0.000000 -12.500000
v -37.500000 0.000000 12.500000
v -37.500000 0.000000 -37.500000
v -12.571767 0.000000 37.765938
v -37.571766 0.000000 37.765938
v 12.500000 18.750000 -12.500000
v 12.500000 18.750000 12.500000
v -12.500000 18.750000 12.512501
v -37.500000 18.750000 -12.500000
v -37.500000 18.750000 12.500000
v -37.500000 18.750000 -37.500000
v -12.571767 18.750000 37.765938
v -37.500000 18.750000 37.500000
v 12.500000 18.750000 -12.500000
v 12.500000 18.750000 12.512501
v 12.500000 18.750000 -37.500000
v 87.500000 18.750000 -12.500000
v 87.500000 18.750000 12.512501
v 87.500000 18.750000 -37.500000
v 87.500000 18.750000 37.500000
v 12.500000 18.750000 12.500000
v -12.500000 18.750000 12.512501
v -12.500000 0.000000 -37.500000
v -37.500000 18.750000 -12.500000
v 87.500000 18.750000 -12.500000
v 87.500000 18.750000 12.512501
v 87.500000 18.750000 -37.500000
v 87.500000 18.750000 37.500000
v 112.500000 18.750000 -12.500000
v 112.500000 18.750000 12.512501
v 112.500000 18.750000 -37.500000
v 112.500000 18.750000 37.500000
v 12.500000 18.750000 -87.500000
v 87.500000 18.750000 -87.500000
v 112.500000 18.750000 -87.500000
v -37.500000 18.750000 12.500000
v -37.500000 18.750000 -37.500000
v -12.571767 18.750000 37.765938
v 12.500000 18.750000 -37.500000
v 87.500000 18.750000 -37.500000
v 87.500000 18.750000 -37.500000
v 112.500000 18.750000 -12.500000
v 112.500000 18.750000 12.512501
v 112.500000 18.750000 -37.500000
v 112.500000 18.750000 37.500000
v 12.500000 18.750000 -87.500000
v 87.500000 18.750000 -87.500000
v 112.500000 18.750000 -87.500000
v -12.499998 18.750000 -12.500000
v 12.500000 18.750000 -37.500000
v -12.499998 18.750000 -37.500000
v 12.500000 0.000000 -37.500000
v -12.499998 18.750000 -12.500000
v -12.499998 18.750000 -37.500000
v -12.499998 18.750000 -12.500000
v -12.499998 18.750000 -37.500000
vt 0.0000 0.0000
vt -1.0000 1.0000
vt -1.0000 0.0000
vt 0.0000 0.0000
vt 1.0000 -1.0000
vt 1.0000 0.0000
vt 0.0000 0.0000
vt 1.0000 1.0000
vt 0.0000 1.0000
vt 1.0000 1.0000
vt 0.0000 1.0005
vt 0.0000 0.0000
vt -0.9971 1.0106
vt -1.0000 0.0005
vt 0.0000 0.0000
vt 0.0000 -1.0000
vt 0.0000 -1.0000
vt 0.0000 0.0000
vt 0.0000 -1.0000
vt 0.0000 -1.0000
vt 0.0000 0.0005
vt -1.0000 0.0000
vt -1.0000 0.0000
vt 0.0000 0.0000
vt -3.0000 0.0000
vt 0.0000 0.0000
vt -1.0000 0.0000
vt 0.0000 0.0000
vt 0.0000 0.0000
vt 0.0000 -0.9995
vt 0.0000 -0.9995
vt 0.0000 0.0000
vt 0.0000 -1.0000
vt 0.0000 -1.0000
vt 0.0000 0.0005
vt 0.0000 -1.0000
vt 0.0000 -1.0000
vt 0.0000 -1.0000
vt 1.0000 0.0000
vt 1.0000 0.0000
vt 0.0029 1.0106
vt 0.0000 0.0000
vt 0.0000 0.0005
vt 3.0000 0.0005
vt 4.0000 0.0005
vt 0.0000 0.0005
vt 0.0000 0.0000
vt 0.0000 1.0000
vt 0.0000 0.0000
vt 0.0000 0.0000
vt 0.0000 0.0000
vt 0.0000 0.0005
vt 0.0000 0.0005
vt 0.0000 1.0000
vt 0.0000 0.0005
vt 0.0000 0.0000
vt 3.0000 0.0000
vt 0.0000 0.0000
vt 0.0000 0.0000
vt 0.0000 -1.0000
vt 0.0000 0.0000
vt 0.0000 0.0000
vt 0.0000 -1.0000
vt 0.0000 0.0000
vt 0.0000 0.0000
vt 0.0000 2.0000
vt 0.0000 0.0000
vt 0.0000 0.0000
vt 1.0000 0.0000
vt 0.0000 0.0000
vt 1.0000 0.0000
vt 0.0029 0.0106
vt 1.0000 0.0000
vt 0.0029 0.0106
vt 0.0000 0.0000
vt 0.0000 1.0005
vt 0.0000 0.0000
vt 1.0000 0.0000
vt 1.0000 -1.0000
vt 1.0000 0.0000
vt 1.0000 -1.0000
vt 1.0000 0.0000
vt -3.0000 0.0000
vt -1.0000 0.0000
vt 0.0000 1.0000
vt 0.0000 1.0000
vt 3.0000 0.0000
vt 0.0000 -1.0000
vt 0.0000 -1.0000
vt 0.0000 2.0000
vt 1.0000 0.0000
vt 1.0000 0.0000
vt 4.0029 0.0106
vt 4.0029 0.0106
vt 0.0000 0.0000
vt 0.0000 -1.0000
vt 0.0000 -1.0000
vt 0.0000 1.0005
vt 1.0000 -1.0000
vn 0.0000 1.0000 0.0000
vn 0.0000 0.0000 1.0000
usemtl ConcreteFloor1
s off
f 122/184/19 123/185/19 121/186/19
f 121/187/19 126/188/19 122/189/19
f 126/190/19 127/191/19 122/192/19
f 122/184/19 128/193/19 124/194/19
f 128/195/19 130/196/19 124/197/19
f 132/198/20 142/199/20 176/200/20
f 133/201/20 140/202/20 132/203/20
f 134/204/20 147/205/20 133/206/20
f 159/207/20 173/208/20 172/209/20
f 126/190/20 178/210/20 149/211/20
f 146/212/20 152/213/20 144/214/20
f 143/215/20 153/216/20 145/217/20
f 144/218/20 151/219/20 143/220/20
f 122/184/19 124/194/19 123/185/19
f 121/187/19 125/221/19 126/188/19
f 126/190/19 129/222/19 127/191/19
f 122/184/19 127/223/19 128/193/19
f 128/195/19 131/224/19 130/196/19
f 132/198/20 140/225/20 142/199/20
f 133/201/20 141/226/20 140/202/20
f 144/218/20 141/227/20 134/228/20
f 134/204/20 148/229/20 147/205/20
f 157/230/20 168/231/20 170/232/20
f 146/212/20 154/233/20 152/213/20
f 143/215/20 151/234/20 153/216/20
f 144/218/20 152/235/20 151/219/20
f 156/236/20 171/237/20 169/238/20
f 145/239/20 165/240/20 166/241/20
f 136/242/20 150/243/20 162/244/20
f 135/245/20 163/246/20 150/247/20
f 161/248/20 170/249/20 174/250/20
f 158/251/20 146/252/20 171/253/20
f 157/230/20 167/254/20 170/232/20
f 138/255/20 139/256/20 164/257/20
f 155/258/20 169/259/20 168/260/20
f 175/261/20 180/262/20 179/263/20
f 179/263/20 182/264/20 181/265/20
f 159/207/20 160/266/20 173/208/20
f 126/190/20 125/267/20 178/210/20
f 157/230/20 155/268/20 168/231/20
f 156/236/20 158/269/20 171/237/20
f 145/239/20 142/270/20 165/240/20
f 136/242/20 135/271/20 150/243/20
f 135/245/20 137/272/20 163/246/20
f 161/248/20 157/273/20 170/249/20
f 158/251/20 154/274/20 146/252/20
f 157/230/20 153/275/20 167/254/20
f 146/212/20 138/276/20 164/277/20
f 139/278/20 136/279/20 162/280/20
f 155/258/20 156/281/20 169/259/20
f 175/261/20 177/282/20 180/262/20
f 179/263/20 180/262/20 182/264/20
g Plane
v -12.500000 18.750000 -37.500000
v 12.500000 18.750000 -37.500000
v -6.249999 18.750000 -12.500000
v -12.500000 18.750000 -37.500000
v 12.500000 18.750000 -37.500000
v -6.249999 18.750000 12.500000
v 12.500000 18.750000 -37.500000
v 87.500000 18.750000 -87.500000
v 112.500000 18.750000 -87.500000
v 12.500000 18.750000 -37.500000
v 112.500000 18.750000 -112.500000
v 87.500000 18.750000 -112.500000
v 87.500000 -6.155395 -87.500000
v 112.500000 -6.155395 -87.500000
v 112.500000 -6.155395 -112.500000
v 87.500000 -6.155395 -112.500000
vt 0.0000 0.0000
vt -1.0000 -9.9622
vt -1.0000 0.0000
vt 0.0000 0.0000
vt -1.0000 -9.9622
vt -1.0000 0.0000
vt 0.0000 0.0000
vt 1.0000 -9.9622
vt 1.0000 0.0000
vt 0.0000 0.0000
vt 1.0000 1.0000
vt 0.0000 1.0000
vt 0.0000 -9.9622
vt 0.0000 -9.9622
vt 0.0000 -9.9622
vt 1.0000 0.0000
vn 1.0000 0.0000 0.0000
vn 0.0000 0.0000 1.0000
vn -1.0000 0.0000 0.0000
vn 0.0000 1.0000 0.0000
usemtl MetalFloor2
s off
f 190/283/21 198/284/21 194/285/21
f 194/286/22 197/287/22 193/288/22
f 193/289/23 196/290/23 191/291/23
f 197/292/24 195/293/24 196/294/24
f 190/283/21 195/295/21 198/284/21
f 194/286/22 198/296/22 197/287/22
f 193/289/23 197/297/23 196/290/23
f 197/292/24 198/298/24 195/293/24
