# Blender v2.78 (sub 0) OBJ File: ''
# www.blender.org
mtllib healthbox.mtl
o Cube.001
v 1.000000 -1.000000 1.000000
v -1.000000 -1.000000 -1.000000
v 1.000000 -1.000000 -1.000000
v -1.000000 1.000000 -1.000000
v 0.999999 1.000000 1.000001
v 1.000000 1.000000 -0.999999
v -1.000000 -1.000000 1.000000
v -1.000000 1.000000 1.000000
vt 0.9961 0.0000
vt 0.0000 1.0000
vt 0.0000 0.0000
vt 1.0000 1.0000
vt 0.0000 0.0000
vt 1.0000 0.0000
vt 0.0000 0.9961
vt 0.0000 0.9961
vt 1.0000 0.0000
vt 0.0000 0.0000
vt 1.0000 0.0039
vt 0.0000 0.9968
vt 0.0039 0.0003
vt 0.9961 0.0000
vt 0.0000 0.9961
vt 0.9961 0.9961
vt 0.9961 0.9961
vt 0.0000 1.0000
vt 0.9961 0.9961
vt 0.9961 0.9961
vt 0.9961 1.0000
vt 0.0000 0.0000
vn 0.0000 -1.0000 -0.0000
vn -0.0000 1.0000 0.0000
vn 1.0000 0.0000 0.0000
vn -0.0000 -0.0000 1.0000
vn -1.0000 0.0000 0.0000
vn 0.0000 0.0000 -1.0000
usemtl Material.001
s 1
f 1/1/1 2/2/1 3/3/1
f 4/4/2 5/5/2 6/6/2
f 6/7/3 1/1/3 3/3/3
f 5/8/4 7/9/4 1/10/4
f 7/11/5 4/12/5 2/13/5
f 3/14/6 4/15/6 6/16/6
f 1/1/1 7/17/1 2/2/1
f 4/4/2 8/18/2 5/5/2
f 6/7/3 5/19/3 1/1/3
f 5/8/4 8/20/4 7/9/4
f 7/11/5 8/21/5 4/12/5
f 3/14/6 2/22/6 4/15/6
